<svg xmlns="http://www.w3.org/2000/svg" viewBox="0 0 1080 400" role="img" aria-labelledby="title desc">
  <title id="title">Minoo Lakani ML Song logo</title>
  <desc id="desc">Gold ML musical monogram and the word SONG on a transparent background.</desc>
  <defs>
    <linearGradient id="gold" x1="0" y1="0" x2="1" y2="1">
      <stop offset="0%" stop-color="#f4d58a"/>
      <stop offset="34%" stop-color="#d7a84c"/>
      <stop offset="68%" stop-color="#b77b24"/>
      <stop offset="100%" stop-color="#f0cb76"/>
    </linearGradient>
  </defs>

  <g transform="translate(212,-54) scale(.74)" fill="url(#gold)" stroke="url(#gold)">
    <g font-family="Georgia, 'Times New Roman', serif" font-weight="700" stroke="none">
      <text x="145" y="408" font-size="350">M</text>
      <text x="468" y="408" font-size="350">L</text>
    </g>

    <g stroke-width="6" stroke-linecap="square" fill="none" opacity=".92">
      <path d="M197 193v185M229 184v194M261 198v180M293 216v162M326 183v195M356 177v201M386 199v179"/>
      <path d="M512 165v220M524 165v220M536 165v220M548 165v220" stroke-width="3.5"/>
    </g>

    <g stroke="none">
      <circle cx="558" cy="205" r="7"/>
      <circle cx="558" cy="232" r="7"/>
      <circle cx="558" cy="259" r="7"/>
      <circle cx="558" cy="286" r="7"/>
      <ellipse cx="406" cy="395" rx="52" ry="37" transform="rotate(-13 406 395)"/>
      <path d="M430 395V81c0-20 13-39 33-51-8 25 2 49 31 76 45 42 61 88 50 137-8 38-30 70-61 94 27-44 35-83 21-117-12-29-36-53-74-73v248z"/>
    </g>

    <path d="M145 425h290M462 425h205" stroke-width="4" fill="none"/>
    <text x="168" y="485" stroke="none" font-family="Georgia, 'Times New Roman', serif" font-size="50" letter-spacing="35">SONG</text>
  </g>
</svg>