<svg xmlns="http://www.w3.org/2000/svg" viewBox="0 0 1080 400" role="img" aria-labelledby="title desc">
  <title id="title">Minoo Lakani ML Song logo</title>
  <desc id="desc">Black ML musical monogram with a muted red note and SONG on a soft faded bronze background.</desc>
  <defs>
    <radialGradient id="bronze" cx="50%" cy="46%" r="74%">
      <stop offset="0%" stop-color="#9b9078"/>
      <stop offset="58%" stop-color="#817965"/>
      <stop offset="100%" stop-color="#696554"/>
    </radialGradient>
    <linearGradient id="note" x1="0" y1="0" x2="1" y2="1">
      <stop offset="0%" stop-color="#b12a26"/>
      <stop offset="100%" stop-color="#841816"/>
    </linearGradient>
  </defs>

  <rect width="1080" height="400" fill="url(#bronze)"/>

  <g transform="translate(212,-54) scale(.74)">
    <g fill="#11100e" font-family="Georgia, 'Times New Roman', serif" font-weight="700">
      <text x="145" y="408" font-size="350">M</text>
      <text x="468" y="408" font-size="350">L</text>
    </g>

    <g stroke="#d8cfba" stroke-width="7" stroke-linecap="square">
      <path d="M197 193v185M229 184v194M261 198v180M293 216v162M326 183v195M356 177v201M386 199v179"/>
    </g>

    <g fill="#d8cfba">
      <rect x="188" y="190" width="18" height="95" rx="1"/>
      <rect x="220" y="181" width="18" height="103" rx="1"/>
      <rect x="252" y="195" width="18" height="90" rx="1"/>
      <rect x="284" y="213" width="18" height="73" rx="1"/>
      <rect x="317" y="180" width="18" height="105" rx="1"/>
      <rect x="347" y="174" width="18" height="111" rx="1"/>
      <rect x="377" y="196" width="18" height="89" rx="1"/>
    </g>

    <g stroke="#d8cfba" stroke-width="4">
      <path d="M512 165v220M524 165v220M536 165v220M548 165v220"/>
    </g>

    <g fill="#11100e">
      <circle cx="558" cy="205" r="7"/>
      <circle cx="558" cy="232" r="7"/>
      <circle cx="558" cy="259" r="7"/>
      <circle cx="558" cy="286" r="7"/>
    </g>

    <g fill="url(#note)">
      <ellipse cx="406" cy="395" rx="52" ry="37" transform="rotate(-13 406 395)"/>
      <path d="M430 395V81c0-20 13-39 33-51-8 25 2 49 31 76 45 42 61 88 50 137-8 38-30 70-61 94 27-44 35-83 21-117-12-29-36-53-74-73v248z"/>
    </g>

    <path d="M145 425h290M462 425h205" stroke="#11100e" stroke-width="4"/>
    <text x="168" y="485" fill="#11100e" font-family="Georgia, 'Times New Roman', serif" font-size="50" letter-spacing="35">SONG</text>
  </g>
</svg>